<svg width="36" height="36" viewBox="0 0 36 36" fill="none" xmlns="http://www.w3.org/2000/svg">
<path d="M18 0C8.1 0 0 8.1 0 18C0 27.9 8.1 36 18 36C27.9 36 36 27.9 36 18C36 8.1 27.9 0 18 0ZM9 31.2V30C9 26.8 13.2 24 18 24C22.8 24 27 26.8 27 30V31.2C24.5 33 21.3 34 18 34C14.7 34 11.5 33 9 31.2ZM28.9 29.6C28.7 25.5 23.8 22 18 22C12.2 22 7.3 25.4 7.1 29.6C4 26.7 2 22.6 2 18C2 9.2 9.2 2 18 2C26.8 2 34 9.2 34 18C34 22.6 32 26.7 28.9 29.6Z" fill="#6C63FF"/>
<path d="M18 6C14.1 6 11 9.1 11 13C11 16.9 14.1 20 18 20C21.9 20 25 16.9 25 13C25 9.1 21.9 6 18 6ZM18 18C15.2 18 13 15.8 13 13C13 10.2 15.2 8 18 8C20.8 8 23 10.2 23 13C23 15.8 20.8 18 18 18Z" fill="#6C63FF"/>
</svg>
