<svg width="25" height="25" viewBox="0 0 25 25" fill="none" xmlns="http://www.w3.org/2000/svg">
<path d="M24.5 12.7505C24.5 6.12307 19.1274 0.750488 12.5 0.750488C5.87258 0.750488 0.5 6.12307 0.5 12.7505C0.5 19.3779 5.87258 24.7505 12.5 24.7505C19.1274 24.7505 24.5 19.3779 24.5 12.7505Z" fill="white"/>
<path fill-rule="evenodd" clip-rule="evenodd" d="M18.3723 12.8868C18.3723 12.4614 18.3341 12.0523 18.2632 11.6595H12.6123V13.9805H15.8414C15.7023 14.7305 15.2796 15.3659 14.6441 15.7914V17.2968H16.5832C17.7178 16.2523 18.3723 14.7141 18.3723 12.8868Z" fill="#4285F4"/>
<path fill-rule="evenodd" clip-rule="evenodd" d="M12.6118 18.7505C14.2318 18.7505 15.59 18.2132 16.5827 17.2969L14.6437 15.7914C14.1064 16.1514 13.4191 16.3641 12.6118 16.3641C11.0491 16.3641 9.72637 15.3087 9.25455 13.8905H7.25V15.4451C8.23727 17.406 10.2664 18.7505 12.6118 18.7505Z" fill="#34A853"/>
<path fill-rule="evenodd" clip-rule="evenodd" d="M9.25504 13.8905C9.13504 13.5305 9.06686 13.1459 9.06686 12.7505C9.06686 12.355 9.13504 11.9705 9.25504 11.6105V10.0559H7.25049C6.84412 10.8659 6.6123 11.7823 6.6123 12.7505C6.6123 13.7186 6.84412 14.635 7.25049 15.445L9.25504 13.8905Z" fill="#FBBC05"/>
<path fill-rule="evenodd" clip-rule="evenodd" d="M12.6118 9.13686C13.4927 9.13686 14.2837 9.43959 14.9055 10.0341L16.6264 8.31322C15.5873 7.34504 14.2291 6.75049 12.6118 6.75049C10.2664 6.75049 8.23727 8.09504 7.25 10.056L9.25455 11.6105C9.72637 10.1923 11.0491 9.13686 12.6118 9.13686Z" fill="#EA4335"/>
</svg>
